<svg xmlns="http://www.w3.org/2000/svg" width="512" height="512" viewBox="0 0 512 512">
  <rect width="512" height="512" rx="128" fill="#0d9488" />
  <g transform="translate(128, 128) scale(0.5)">
    <path d="M364.61 390.213C304.625 450.196 207.37 450.196 147.386 390.213C117.394 360.22 102.398 320.911 102.398 281.6C102.398 242.291 117.394 202.981 147.386 172.989C147.386 230.4 153.6 281.6 230.4 307.2C230.4 256 256 102.4 294.4 76.7999C320 128 334.618 142.997 364.608 172.989C394.601 202.981 409.597 242.291 409.597 281.6C409.597 320.911 394.601 360.22 364.61 390.213Z" fill="white" stroke="white" stroke-width="4" stroke-linejoin="round"/>
    <path d="M201.694 387.105C231.686 417.098 280.312 417.098 310.305 387.105C325.301 372.109 332.8 352.456 332.8 332.8C332.8 313.144 325.301 293.491 310.305 278.495C295.309 263.498 275.656 256 256 256C236.344 256 216.691 263.498 201.694 278.495C186.698 293.491 179.2 313.144 179.2 332.8C179.2 352.456 186.698 372.109 201.694 387.105Z" fill="white" stroke="white" stroke-width="4" stroke-linejoin="round"/>
  </g>
</svg>